<svg width="856" height="556" viewBox="0 0 856 556" fill="none" xmlns="http://www.w3.org/2000/svg">
  <g transform="translate(0, 0)">
    <rect width="256" height="256" fill="#242938" rx="60"/>
    <g transform="translate(66, 50) scale(5.33)">
      <path d="M22.2819 9.8211a5.9847 5.9847 0 0 0-.5157-4.9108 6.0462 6.0462 0 0 0-6.5098-2.9A6.0651 6.0651 0 0 0 4.9807 4.1818a5.9847 5.9847 0 0 0-3.9977 2.9 6.0462 6.0462 0 0 0 .7427 7.0966 5.98 5.98 0 0 0 .511 4.9107 6.051 6.051 0 0 0 6.5146 2.9001A5.9847 5.9847 0 0 0 13.2599 24a6.0557 6.0557 0 0 0 5.7718-4.2058 5.9894 5.9894 0 0 0 3.9977-2.9001 6.0557 6.0557 0 0 0-.7475-7.0729zm-9.022 12.6081a4.4755 4.4755 0 0 1-2.8764-1.0408l.1419-.0804 4.7783-2.7582a.7948.7948 0 0 0 .3927-.6813v-6.7369l2.02 1.1686a.071.071 0 0 1 .038.052v5.5826a4.504 4.504 0 0 1-4.4945 4.4944zm-9.6607-4.1254a4.4708 4.4708 0 0 1-.5346-3.0137l.142.0852 4.783 2.7582a.7712.7712 0 0 0 .7806 0l5.8428-3.3685v2.3324a.0804.0804 0 0 1-.0332.0615L9.74 19.9502a4.4992 4.4992 0 0 1-6.1408-1.6464zM2.3408 7.8956a4.485 4.485 0 0 1 2.3655-1.9728V11.6a.7664.7664 0 0 0 .3879.6765l5.8144 3.3543-2.0201 1.1685a.0757.0757 0 0 1-.071 0l-4.8303-2.7865A4.504 4.504 0 0 1 2.3408 7.872zm16.5963 3.8558L13.1038 8.364 15.1192 7.2a.0757.0757 0 0 1 .071 0l4.8303 2.7913a4.4944 4.4944 0 0 1-.6765 8.1042v-5.6772a.79.79 0 0 0-.407-.667zm2.0107-3.0231l-.142-.0852-4.7735-2.7818a.7759.7759 0 0 0-.7854 0L9.409 9.2297V6.8974a.0662.0662 0 0 1 .0284-.0615l4.8303-2.7866a4.4992 4.4992 0 0 1 6.6802 4.66zM8.3065 12.863l-2.02-1.1638a.0804.0804 0 0 1-.038-.0567V6.0742a4.4992 4.4992 0 0 1 7.3757-3.4537l-.142.0805L8.704 5.459a.7948.7948 0 0 0-.3927.6813zm1.0976-2.3654l2.602-1.4998 2.6069 1.4998v2.9994l-2.5974 1.4997-2.6067-1.4997Z" fill="white"/>
    </g>
    <text x="128" y="225" fill="white" font-family="Arial" font-size="24" text-anchor="middle" font-weight="bold">OpenAI</text>
  </g>
  <g transform="translate(300, 0)">
    <rect width="256" height="256" fill="#242938" rx="60"/>
    <g transform="translate(64, 40) scale(5.33)">
      <title>Gemini</title>
      <path d="M20.616 10.835a14.147 14.147 0 01-4.45-3.001 14.111 14.111 0 01-3.678-6.452.503.503 0 00-.975 0 14.134 14.134 0 01-3.679 6.452 14.155 14.155 0 01-4.45 3.001c-.65.28-1.318.505-2.002.678a.502.502 0 000 .975c.684.172 1.35.397 2.002.677a14.147 14.147 0 014.45 3.001 14.112 14.112 0 013.679 6.453.502.502 0 00.975 0c.172-.685.397-1.351.677-2.003a14.145 14.145 0 013.001-4.45 14.113 14.113 0 016.453-3.678.503.503 0 000-.975 13.245 13.245 0 01-2.003-.678z" fill="#3186FF"/>
      <path d="M20.616 10.835a14.147 14.147 0 01-4.45-3.001 14.111 14.111 0 01-3.678-6.452.503.503 0 00-.975 0 14.134 14.134 0 01-3.679 6.452 14.155 14.155 0 01-4.45 3.001c-.65.28-1.318.505-2.002.678a.502.502 0 000 .975c.684.172 1.35.397 2.002.677a14.147 14.147 0 014.45 3.001 14.112 14.112 0 013.679 6.453.502.502 0 00.975 0c.172-.685.397-1.351.677-2.003a14.145 14.145 0 013.001-4.45 14.113 14.113 0 016.453-3.678.503.503 0 000-.975 13.245 13.245 0 01-2.003-.678z" fill="url(#lobe-icons-gemini-fill-0)"/>
      <path d="M20.616 10.835a14.147 14.147 0 01-4.45-3.001 14.111 14.111 0 01-3.678-6.452.503.503 0 00-.975 0 14.134 14.134 0 01-3.679 6.452 14.155 14.155 0 01-4.45 3.001c-.65.28-1.318.505-2.002.678a.502.502 0 000 .975c.684.172 1.35.397 2.002.677a14.147 14.147 0 014.45 3.001 14.112 14.112 0 013.679 6.453.502.502 0 00.975 0c.172-.685.397-1.351.677-2.003a14.145 14.145 0 013.001-4.45 14.113 14.113 0 016.453-3.678.503.503 0 000-.975 13.245 13.245 0 01-2.003-.678z" fill="url(#lobe-icons-gemini-fill-1)"/>
      <path d="M20.616 10.835a14.147 14.147 0 01-4.45-3.001 14.111 14.111 0 01-3.678-6.452.503.503 0 00-.975 0 14.134 14.134 0 01-3.679 6.452 14.155 14.155 0 01-4.45 3.001c-.65.28-1.318.505-2.002.678a.502.502 0 000 .975c.684.172 1.35.397 2.002.677a14.147 14.147 0 014.45 3.001 14.112 14.112 0 013.679 6.453.502.502 0 00.975 0c.172-.685.397-1.351.677-2.003a14.145 14.145 0 013.001-4.45 14.113 14.113 0 016.453-3.678.503.503 0 000-.975 13.245 13.245 0 01-2.003-.678z" fill="url(#lobe-icons-gemini-fill-2)"/>
      <defs>
        <linearGradient gradientUnits="userSpaceOnUse" id="lobe-icons-gemini-fill-0" x1="7" x2="11" y1="15.5" y2="12">
          <stop stop-color="#08B962"/>
          <stop offset="1" stop-color="#08B962" stop-opacity="0"/>
        </linearGradient>
        <linearGradient gradientUnits="userSpaceOnUse" id="lobe-icons-gemini-fill-1" x1="8" x2="11.5" y1="5.5" y2="11">
          <stop stop-color="#F94543"/>
          <stop offset="1" stop-color="#F94543" stop-opacity="0"/>
        </linearGradient>
        <linearGradient gradientUnits="userSpaceOnUse" id="lobe-icons-gemini-fill-2" x1="3.5" x2="17.5" y1="13.5" y2="12">
          <stop stop-color="#FABC12"/>
          <stop offset=".46" stop-color="#FABC12" stop-opacity="0"/>
        </linearGradient>
      </defs>
    </g>
    <text x="128" y="225" fill="white" font-family="Arial" font-size="24" text-anchor="middle" font-weight="bold">Gemini</text>
  </g>
  <g transform="translate(600, 0)">
    <svg width="256" height="256" viewBox="0 0 256 256" fill="none" xmlns="http://www.w3.org/2000/svg">
      <rect width="256" height="256" rx="60" fill="#1C3C3C"/>
      <g transform="translate(68, 55)">
        <rect x="10" y="60" width="80" height="12" rx="4" fill="#08B962" opacity="0.4"/>
        <rect x="10" y="40" width="100" height="12" rx="4" fill="#08B962" opacity="0.7"/>
        <rect x="10" y="20" width="100" height="12" rx="4" fill="#08B962"/>
        <path d="M110 90 L120 75 L130 90 L145 100 L130 110 L120 125 L110 110 L95 100 Z" fill="#FABC12"/>
      </g>
      <text x="128" y="225" fill="white" font-family="Arial" font-size="24" text-anchor="middle" font-weight="bold">RAG</text>
    </svg>
  </g>
  <g transform="translate(0, 300)">
    <rect width="256" height="256" fill="#fff39b" rx="60"/>
    <g transform="translate(64, 45) scale(5.33)">
      <path d="M8.373 14.502c.013-.06.024-.118.038-.17l.061.145c.115.28.229.557.506.714-.012.254-.334.357-.552.326-.048-.114-.115-.228-.255-.164-.143.056-.3-.01-.266-.185.333-.012.407-.371.468-.666zM18.385 9.245c-.318 0-.616.122-.839.342l-.902.887c-.243.24-.368.572-.343.913l.006.056c.032.262.149.498.337.682.13.128.273.21.447.266a.866.866 0 01-.247.777l-.056.055a2.022 2.022 0 01-1.355-1.555l-.01-.057-.046.037c-.03.024-.06.05-.088.078l-.902.887a1.156 1.156 0 000 1.65c.231.228.535.342.84.342.304 0 .607-.114.838-.341l.902-.888a1.156 1.156 0 00-.436-1.921.953.953 0 01.276-.842 2.062 2.062 0 011.371 1.57l.01.057.047-.037c.03-.024.06-.05.088-.078l.902-.888a1.155 1.155 0 000-1.65 1.188 1.188 0 00-.84-.342z" fill="#1C3C3C"/>
      <path clip-rule="evenodd" d="M17.901 6H6.1C2.736 6 0 8.692 0 12s2.736 6 6.099 6H17.9C21.264 18 24 15.308 24 12s-2.736-6-6.099-6zm-5.821 9.407c-.195.04-.414.047-.562-.106-.045.1-.136.077-.221.056a.797.797 0 00-.061-.014c-.01.025-.017.048-.026.073-.329.021-.575-.309-.732-.558a4.991 4.991 0 00-.473-.21c-.172-.07-.345-.14-.509-.23a2.218 2.218 0 00-.004.173c-.002.244-.004.503-.227.651-.007.295.236.292.476.29.207-.003.41-.005.447.184a.485.485 0 01-.05.003c-.046 0-.092 0-.127.034-.117.111-.242.063-.372.013-.12-.046-.243-.094-.367-.02a2.318 2.318 0 00-.262.154.97.97 0 01-.548.194c-.024-.036-.014-.059.006-.08a.562.562 0 00.043-.056c.019-.028.035-.057.051-.084.054-.095.103-.18.242-.22-.185-.029-.344.055-.5.137l-.004.002a4.21 4.21 0 01-.065.034c-.097.04-.154.009-.212-.023-.082-.045-.168-.092-.376.04-.04-.032-.02-.061.002-.086.091-.109.21-.125.345-.119-.351-.193-.604-.056-.81.055-.182.098-.327.176-.471-.012-.065.017-.102.063-.138.108-.015.02-.03.038-.047.055-.035-.039-.027-.083-.018-.128l.005-.026a.242.242 0 00.003-.03l-.027-.01c-.053-.022-.105-.044-.09-.124-.117-.04-.2.03-.286.094-.054-.041-.01-.095.032-.145a.279.279 0 00.045-.065c.038-.065.103-.067.166-.069.054-.001.108-.003.145-.042.133-.075.297-.036.462.003.121.028.242.057.354.042.203.025.454-.18.352-.385-.186-.233-.184-.528-.183-.813v-.143c-.016-.108-.172-.233-.328-.358-.12-.095-.24-.191-.298-.28-.16-.177-.285-.382-.409-.585l-.015-.024c-.212-.404-.297-.86-.382-1.315-.103-.546-.205-1.09-.526-1.54-.266.144-.612.075-.841-.118-.12.107-.13.247-.138.396l-.001.014c-.297-.292-.26-.844-.023-1.17.097-.128.213-.233.342-.326.03-.021.04-.042.039-.074.235-1.04 1.836-.839 2.342-.103.167.206.281.442.395.678.137.283.273.566.5.795.22.237.452.463.684.689.359.35.718.699 1.032 1.089.49.587.839 1.276 1.144 1.97.05.092.08.193.11.293.044.15.089.299.2.417.026.035.084.088.149.148.156.143.357.328.289.409.009.019.027.04.05.06.032.028.074.058.116.088.122.087.25.178.16.25zm7.778-3.545l-.902.887c-.24.237-.537.413-.859.51l-.017.005-.006.015A2.021 2.021 0 0117.6 14l-.902.888c-.393.387-.916.6-1.474.6-.557 0-1.08-.213-1.474-.6a2.03 2.03 0 010-2.9l.902-.888c.242-.238.531-.409.859-.508l.016-.004.006-.016c.105-.272.265-.516.475-.724l.902-.887c.393-.387.917-.6 1.474-.6.558 0 1.08.213 1.474.6.394.387.61.902.61 1.45 0 .549-.216 1.064-.61 1.45v.001z" fill="#1C3C3C" fill-rule="evenodd"/>
    </g>
    <text x="128" y="225" fill="#1C3C3C" font-family="Arial" font-size="24" text-anchor="middle" font-weight="bold">LangChain</text>
  </g>
  <g transform="translate(300, 300)">
    <rect width="256" height="256" fill="#1070B3" rx="60"/>
    <g transform="translate(75, 60)">
      <rect width="30" height="30" fill="white" opacity="0.3" x="0" y="0"/>
      <rect width="30" height="30" fill="white" opacity="0.6" x="35" y="0"/>
      <rect width="30" height="30" fill="white" opacity="0.9" x="70" y="0"/>
      <rect width="30" height="30" fill="white" opacity="0.6" x="0" y="35"/>
      <rect width="30" height="30" fill="white" x="35" y="35"/>
      <rect width="30" height="30" fill="white" opacity="0.6" x="70" y="35"/>
    </g>
    <text x="128" y="225" fill="white" font-family="Arial" font-size="24" text-anchor="middle" font-weight="bold">Vector DB</text>
  </g>
  <g transform="translate(600, 300)">
    <rect width="256" height="256" fill="#062d47" rx="60"/>
    <g transform="translate(73, 40) scale(0.38)">
      <g transform="rotate(270, 145.85, 145.85)">
        <path style="fill:#C0491F;" d="M133.411,121.592l-13.141,13.141L7.558,247.445C-2.517,257.52-2.375,273.997,7.7,284.072l0,0 c10.075,10.075,26.552,10.217,36.627,0.143l75.943-75.943l49.911-49.911L133.411,121.592z"/>
        <circle style="fill:#1C7287;" cx="192.332" cy="99.295" r="99.295"/>
        <path style="fill:#165C6C;" d="M173.368,196.772c-18.777-3.635-36.706-12.724-51.247-27.265 c-38.777-38.777-38.777-101.647,0-140.424c14.516-14.516,32.409-23.598,51.149-27.246L173.368,196.772z"/>
        <path style="fill:#32A5B9;" d="M248.707,155.67c-31.135,31.135-81.615,31.135-112.75,0c-6.121-6.121-11.038-12.989-14.753-20.311 c-11.143-21.966-11.456-48.016-0.94-70.211c3.81-8.041,9.04-15.575,15.692-22.227c31.135-31.135,81.615-31.135,112.75,0 S279.842,124.535,248.707,155.67z"/>
        <path style="fill:#2B8A9A;" d="M173.27,21.871c-13.673,3.353-26.631,10.368-37.313,21.049 c-6.652,6.652-11.883,14.187-15.692,22.227c-10.516,22.196-10.203,48.245,0.94,70.211c3.714,7.322,8.631,14.191,14.752,20.311 c10.681,10.681,23.64,17.696,37.313,21.049V21.871z"/>
        <path style="fill:#E6E6E6;" d="M219.218,79.909c-1.919,0-3.839-0.732-5.304-2.196c-11.901-11.901-31.264-11.899-43.163,0 c-2.93,2.928-7.678,2.928-10.607,0c-2.929-2.93-2.929-7.678,0-10.607c17.751-17.748,46.629-17.747,64.378,0 c2.929,2.93,2.929,7.678,0,10.607C223.057,79.177,221.137,79.909,219.218,79.909z"/>
        <path style="fill:#C4C8C4;" d="M173.268,75.458c-0.87,0.697-1.71,1.449-2.517,2.255c-2.93,2.928-7.678,2.928-10.607,0 c-2.929-2.93-2.929-7.678,0-10.607c3.914-3.913,8.369-6.964,13.126-9.151L173.268,75.458z"/>
      </g>
    </g>
    <text x="128" y="225" fill="white" font-family="Arial" font-size="24" text-anchor="middle" font-weight="bold">FAISS</text>
  </g>
</svg>
