<svg width="856" height="556" viewBox="0 0 856 556" fill="none" xmlns="http://www.w3.org/2000/svg">
  <rect width="256" height="256" fill="#242938" rx="60"/>
  <g clip-path="url(#a)">
    <path fill="#fff" fill-rule="evenodd" d="M203.801 178.21c-9.79-.272-17.385.731-23.75 3.409-1.833.736-4.774.736-5.016 3.043.98.968 1.098 2.552 1.957 3.894 1.467 2.435 4.041 5.715 6.365 7.417l7.834 5.598c4.774 2.917 10.16 4.622 14.811 7.542 2.694 1.704 5.386 3.894 8.08 5.721 1.372.973 2.203 2.558 3.918 3.163v-.368c-.856-1.091-1.103-2.672-1.956-3.894l-3.677-3.526c-3.547-4.744-7.957-8.884-12.731-12.287-3.918-2.677-12.484-6.326-14.076-10.825l-.241-.273c2.689-.272 5.872-1.219 8.445-1.949 4.165-1.091 7.957-.851 12.238-1.945l5.88-1.704v-1.091c-2.204-2.189-3.795-5.11-6.119-7.176-6.242-5.353-13.102-10.586-20.203-14.965-3.794-2.432-8.692-4.017-12.731-6.081-1.473-.731-3.918-1.096-4.774-2.312-2.209-2.672-3.43-6.204-5.021-9.369l-10.037-21.168c-2.203-4.745-3.553-9.49-6.242-13.869-12.611-20.683-26.324-33.212-47.38-45.502-4.527-2.555-9.913-3.654-15.64-4.99l-9.18-.49c-1.962-.851-3.919-3.164-5.633-4.26-6.978-4.38-24.974-13.868-30.12-1.363-3.305 7.907 4.899 15.692 7.684 19.709 2.085 2.798 4.774 5.96 6.247 9.124.823 2.067 1.098 4.259 1.957 6.449 1.956 5.352 3.794 11.316 6.365 16.306 1.372 2.555 2.813 5.235 4.527 7.545.98 1.363 2.695 1.947 3.06 4.136-1.715 2.435-1.833 6.081-2.813 9.127-4.409 13.748-2.694 30.78 3.548 40.902 1.962 3.04 6.585 9.734 12.858 7.177 5.509-2.19 4.28-9.124 5.871-15.208.37-1.458.124-2.432.856-3.408v.273l5.021 10.097c3.795 5.961 10.408 12.167 15.914 16.306 2.936 2.19 5.263 5.964 8.934 7.3v-.368h-.241c-.736-1.091-1.839-1.582-2.818-2.433-2.203-2.189-4.651-4.867-6.366-7.299-5.139-6.812-9.666-14.357-13.708-22.142-1.961-3.771-3.676-7.908-5.262-11.679-.741-1.461-.741-3.654-1.962-4.379-1.839 2.672-4.527 4.99-5.88 8.273-2.327 5.23-2.568 11.679-3.424 18.371-.494.122-.275 0-.494.272-3.913-.97-5.263-4.99-6.73-8.393-3.672-8.638-4.287-22.507-1.104-32.484.856-2.555 4.533-10.585 3.065-13.018-.74-2.312-3.183-3.648-4.533-5.475-1.591-2.312-3.3-5.23-4.403-7.785-2.936-6.817-4.404-14.357-7.59-21.17-1.473-3.164-4.041-6.45-6.124-9.367-2.327-3.286-4.892-5.599-6.73-9.49-.612-1.363-1.468-3.528-.489-4.99.242-.973.735-1.363 1.71-1.581 1.59-1.364 6.124.365 7.715 1.09 4.527 1.827 8.322 3.529 12.117 6.081 1.715 1.216 3.553 3.529 5.756 4.14h2.574c3.918.85 8.322.272 11.99 1.363 6.49 2.072 12.364 5.11 17.632 8.398 16.035 10.098 29.26 24.454 38.193 41.611 1.468 2.798 2.08 5.353 3.43 8.273 2.574 5.964 5.757 12.045 8.322 17.888 2.574 5.718 5.021 11.562 8.693 16.306 1.838 2.555 9.18 3.891 12.484 5.23 2.45 1.091 6.242 2.073 8.451 3.409 4.159 2.555 8.322 5.475 12.237 8.273 1.956 1.456 8.081 4.499 8.445 6.926zM78.958 72.487a19.6 19.6 0 0 0-5.015.608v.273h.241c.98 1.947 2.695 3.286 3.918 4.99l2.818 5.84.242-.272c1.714-1.216 2.573-3.163 2.573-6.08-.735-.851-.856-1.705-1.468-2.556-.735-1.216-2.326-1.827-3.309-2.797z" clip-rule="evenodd"/>
  </g>
  <defs>
    <clipPath id="a">
      <path fill="#fff" d="M38 38h180v180H38z"/>
    </clipPath>
  </defs>
  <g transform="translate(300)">
    <rect width="256" height="256" fill="#023430" rx="60"/>
    <path fill="#10aa50" d="M171.173 107.591c-10.537-46.481-32.497-58.855-38.099-67.602A99 99 0 0 1 126.949 28c-.296 4.13-.84 6.73-4.35 9.862-7.047 6.283-36.977 30.673-39.496 83.486-2.347 49.242 36.2 79.605 41.292 82.744 3.916 1.927 8.685.041 11.012-1.728 18.581-12.752 43.969-46.75 35.786-94.773"/>
    <path fill="#b8c4c2" d="M128.545 177.871c-.97 12.188-1.665 19.27-4.129 26.235 0 0 1.617 11.603 2.753 23.894h4.019a224 224 0 0 1 4.384-25.732c-5.203-2.56-6.827-13.702-7.027-24.397"/>
    <path fill="#12924f" d="M135.565 202.275c-5.258-2.429-6.779-13.806-7.013-24.404a500 500 0 0 0 1.136-52.545c-.276-9.194.13-85.158-2.265-96.28a92 92 0 0 0 5.651 10.936c5.602 8.754 27.569 21.128 38.099 67.609 8.203 47.941-17.047 81.849-35.608 94.684"/>
  </g>
  <g transform="translate(600)">
    <rect width="256" height="256" fill="#850000" rx="60"/>
    <path style="fill:#fff;fill-opacity:1;fill-rule:nonzero;stroke:none" d="M69.953.309c-1.676.07-4.508.52-4.508.71 0 .079 1.996 1.079 2.149 1.079.14 0 2.457 1.156 2.972 1.476.672.43 1.153.82 1.012.82-.09 0-2.469-.921-3.371-1.308-.734-.309-3.785-1.219-5.27-1.57-.804-.188-1.144-.258-2.511-.508C58.41.64 56.039.618 55.008.957c-1.477.48-1.809 1.07-1.809 3.246 0 1.2.059 1.707.32 2.785.114.469.434 1.5.583 1.848.043.11.183.45.3.75.121.297.485 1.066.805 1.695 1.797 3.567 4.488 6.54 8.281 9.156 1.196.82 4.446 2.375 5.75 2.747.332.09.442.277.172.277-.3 0-3.05-.758-3.613-.996a10 10 0 0 0-.652-.262c-1.957-.789-4.457-2.414-6.524-4.262a21.4 21.4 0 0 1-5.312-7.257c-.793-1.79-1.332-3.875-1.465-5.692-.078-1.039-.16-1.289-.43-1.277-.09 0-.945-.031-1.887-.082-2.562-.11-6.062.172-9.527.77-6.625 1.128-13.773 3.734-21.129 7.706a95 95 0 0 0-3.625 2.067c-.14.082-.582.351-.984.601-.399.25-.871.528-1.043.637-.38.223-4.586 3.078-5.09 3.457-.188.137-.711.527-1.152.848C4.98 21.195.633 24.742.383 25.102c-.121.18.07.27.328.18.133-.052.473-.122.746-.16.281-.044 1.004-.231 1.605-.43.61-.192 1.266-.391 1.454-.442 1.488-.348 2.09-.469 2.96-.598.395-.05.977-.14 1.305-.191 4.078-.598 6.024-.746 7.84-.61 3.945.32 7.719.993 9.879 1.758 1.617.582 4.906 2.36 6.352 3.426.836.63 3.523 3.305 4.117 4.113.46.641.972 1.2 1.093 1.2.04 0 .09-2.04.102-4.524l.027-4.512 5.282-.03c4.156-.02 5.308.011 5.379.1.101.13.343.56 1.136 2.024.754 1.41 1.125 2.09 1.356 2.496.12.223.398.739.633 1.149.218.41.628 1.168.91 1.687.281.52.511.961.511.98 0 .09.414.63.485.63.039 0 .14-.153.21-.32.079-.18.29-.579.462-.88.18-.3.5-.886.722-1.296.223-.41.524-.98.684-1.25.441-.79.902-1.645 1.285-2.344A85 85 0 0 1 58.5 24.96c.129-.25.29-.512.34-.578.082-.09 1.265-.121 5.543-.102l5.43.031.03 8.817c.02 6.945.048 8.805.15 8.805.058-.012.46-.243.874-.532.582-.406.832-.656 1.102-1.117.613-1.047 2.351-2.695 3.515-3.336A16.6 16.6 0 0 1 80 35.254c1.605-.34 2.078-.39 5.723-.52 6.652-.23 7.636-.27 7.687-.32.031-.027-.058-.289-.191-.59-.14-.289-.38-.828-.551-1.187-.633-1.367-.633-1.825.031-2.496.45-.47 1.613-.88 3.613-1.278.329-.07.743-.16.91-.218.173-.051.383-.09.473-.09.254 0 2.25-.489 2.672-.649.29-.12 1.856-.46 3.723-.82.812-.16 2.922-.578 4.668-.93 1.105-.218 2.258-.449 2.558-.508.301-.058.735-.148.954-.187.222-.05.511-.113.652-.133.14-.027.844-.168 1.558-.316a34 34 0 0 1 1.614-.313c.504-.047 4.289-.957 5.16-1.238 1.387-.45 1.797-.629 2.672-1.215.941-.64 1.203-.988 2.136-2.848 1.036-2.066 1.184-2.414 1.477-3.285.45-1.386.422-1.914-.152-2.496-.403-.398-1.266-.808-1.895-.898-.472-.059-.535-.04-.765.21-.141.15-.262.329-.262.391 0 .09-.16.528-.61 1.606-.043.11-.132.379-.203.597-.058.223-.18.532-.25.7-.129.28-.14.23-.09-.547.051-.77.18-1.418.473-2.399.051-.187.121-.507.149-.707l.05-.36-1.043-.417c-1.085-.45-2.02-.84-2.558-1.082-.184-.066-.633-.246-1.004-.387-.383-.14-.844-.32-1.035-.41a24 24 0 0 0-1.055-.437c-.672-.262-3.02-1.059-5.02-1.688a458 458 0 0 0-4.011-1.21 36 36 0 0 1-1.406-.388c-.16-.043-.555-.152-.856-.23-1.766-.488-2.226-.61-2.86-.79a26 26 0 0 0-1.054-.28c-.191-.047-.71-.168-1.152-.278-.774-.191-4.016-.937-5.774-1.34l-1.254-.289c-.222-.05-.62-.129-.902-.18-.273-.05-.844-.16-1.258-.25-.41-.077-1.293-.25-1.957-.359-.66-.117-1.453-.257-1.754-.308-2.773-.5-2.96-.528-7.93-1.078-3.062-.348-7.18-.641-8.183-.59-.16 0-1.05.039-1.965.09" transform="matrix(1.1 0 0 1.1 64 70)"/>
    <path style="fill:#fff;fill-opacity:1;fill-rule:nonzero;stroke:none" d="M48.883 42.832v6.988h5c3.754 0 5.027-.03 5.117-.12.152-.15.184-13.856.031-13.856-.05 0-.12.078-.152.168-.04.09-1.133 1.797-2.438 3.793-2.066 3.156-2.64 3.925-2.64 3.535 0-.07-3.422-5.41-4.297-6.7a4 4 0 0 1-.309-.527c-.082-.152-.18-.27-.23-.27-.043 0-.082 3.145-.082 6.989m0 0" transform="matrix(1.1 0 0 1.1 64 70)"/>
    <text x="128" y="215" fill="#fff" font-family="Arial, sans-serif" font-size="28" font-weight="bold" text-anchor="middle">Mongoose</text>
  </g>
  <g transform="translate(0 300)">
    <rect width="256" height="256" fill="#242938" rx="60"/>
    <g clip-path="url(#b)">
      <path fill="#a41e11" d="M220.161 174.468c-10.673 5.567-65.957 28.297-77.727 34.431-11.771 6.135-18.308 6.077-27.608 1.633-9.3-4.443-68.131-28.206-78.736-33.275-5.302-2.535-8.08-4.666-8.08-6.681V150.36s76.599-16.675 88.968-21.113 16.649-4.597 27.179-.742c10.53 3.854 73.449 15.206 83.846 19.018v19.936c0 1.999-2.396 4.241-7.831 7.02z"/>
      <path fill="#d82c20" d="M220.162 154.246c-10.674 5.567-65.958 28.297-77.728 34.431-11.771 6.135-18.308 6.076-27.608 1.633s-68.131-28.207-78.735-33.275c-10.605-5.069-10.817-8.552-.409-12.63l81.291-31.473c12.365-4.432 16.649-4.597 27.178-.742s65.481 25.726 75.873 29.596 10.8 6.946.127 12.513z"/>
      <path fill="#a41e11" d="M220.161 141.5c-10.673 5.567-65.957 28.297-77.727 34.431-11.771 6.135-18.308 6.076-27.608 1.633s-68.131-28.207-78.736-33.275c-5.302-2.535-8.08-4.666-8.08-6.681v-20.217s76.599-16.675 88.968-21.112c12.37-4.438 16.649-4.597 27.179-.743s73.449 15.207 83.846 19.019v19.936c0 1.998-2.396 4.241-7.831 7.019z"/>
      <path fill="#d82c20" d="M220.162 121.283c-10.674 5.567-65.958 28.297-77.728 34.432-11.771 6.134-18.308 6.076-27.608 1.633-9.3-4.444-68.131-28.207-78.735-33.276-10.605-5.069-10.817-8.552-.409-12.63l81.291-31.467c12.365-4.438 16.649-4.597 27.178-.742 10.53 3.854 65.481 25.73 75.883 29.532s10.801 6.946.128 12.513z"/>
      <path fill="#a41e11" d="M220.161 107.312c-10.673 5.567-65.957 28.297-77.727 34.437s-18.308 6.076-27.608 1.633-68.131-28.207-78.736-33.276c-5.302-2.534-8.08-4.665-8.08-6.68V83.198s76.599-16.674 88.968-21.112c12.36-4.438 16.649-4.597 27.179-.742 10.53 3.854 73.449 15.206 83.846 19.018v19.936c0 1.999-2.396 4.241-7.831 7.02z"/>
      <path fill="#d82c20" d="M220.162 87.09c-10.674 5.567-65.958 28.297-77.728 34.432-11.771 6.134-18.308 6.076-27.608 1.633S46.695 94.948 36.091 89.879c-10.605-5.069-10.817-8.552-.409-12.63l81.291-31.467c12.365-4.438 16.649-4.597 27.178-.742 10.53 3.854 65.481 25.73 75.883 29.532s10.801 6.946.128 12.513z"/>
      <path fill="#fff" d="m132.996 78.755-6.267-10.418-20.01-1.803 14.931-5.387-4.481-8.27 13.977 5.46 13.18-4.316-3.563 8.547 13.436 5.037-17.327 1.803zM99.614 99.497l46.34-7.115-13.997 20.529zm-12.491-7.481c13.68 0 24.771-4.3 24.771-9.602s-11.091-9.602-24.771-9.602S62.35 77.11 62.35 82.414s11.09 9.602 24.772 9.602"/>
      <path fill="#7a0c00" d="m202.113 81.014-27.411 10.827-.021-21.67z"/>
      <path fill="#ad2115" d="m174.707 91.84-2.969 1.167-27.39-10.827 30.343-12.003z"/>
    </g>
    <defs>
      <clipPath id="b">
        <path fill="#fff" d="M28 28h200v200H28z"/>
      </clipPath>
    </defs>
  </g>
</svg>
