<svg width="856" height="556" viewBox="0 0 856 556" fill="none" xmlns="http://www.w3.org/2000/svg">
  <g id="Java" transform="translate(0, 0)">
    <rect width="256" height="256" rx="60" fill="#242938"/>
    <path fill="#fff" d="M101.634 182.619s-7.679 4.674 5.345 6.011c15.728 2.004 24.044 1.669 41.407-1.668 0 0 4.674 3.009 11.02 5.344-39.075 16.696-88.497-1.002-57.772-9.687zM96.625 160.914s-8.35 6.346 4.674 7.679c17.028 1.669 30.391 2.004 53.433-2.667 0 0 3.009 3.341 8.015 5.01-47.083 14.025-99.85-1.667-66.122-13.022zM188.795 198.984s5.676 4.674-6.346 8.35c-22.376 6.678-93.839 8.685-113.876 0-7.01-3.009 6.346-7.352 10.685-8.015 4.343-1.002 6.678-1.002 6.678-1.002-7.68-5.344-51.094 11.02-22.04 15.729 79.813 13.027 145.603-5.676 124.896-15.028l.003-.034zM105.307 138.203s-36.402 8.685-13.028 11.687c10.019 1.333 29.721 1.002 48.089-.335 15.028-1.334 30.09-4.007 30.09-4.007s-5.345 2.338-9.017 4.674c-37.099 9.693-108.23 5.351-87.858-4.668 17.37-8.35 31.724-7.351 31.724-7.351zM170.423 174.604c37.407-19.37 20.037-38.07 8.015-35.731-3.009.667-4.342 1.334-4.342 1.334s1.001-2.004 3.34-2.667c23.709-8.35 42.413 25.046-7.679 38.07 0 0 .335-.335.666-1.006zM108.979 227.364c36.067 2.339 91.168-1.334 92.505-18.369 0 0-2.667 6.678-29.72 11.688-30.722 5.676-68.796 5.009-91.168 1.333 0 0 4.674 4.007 28.383 5.348z"/>
    <path fill="#F58219" d="M147.685 28s20.704 21.039-19.702 52.759c-32.394 25.713-7.351 40.409 0 57.102-19.035-17.028-32.722-32.059-23.377-46.085 13.725-20.693 51.456-30.711 43.079-63.776zM137 123.842c9.683 11.02-2.667 21.039-2.667 21.039s24.711-12.686 13.359-28.387c-10.354-15.028-18.368-22.376 25.046-47.425 0 0-68.46 17.028-35.731 54.766l-.007.007z"/>
  </g>

  <g id="javascript" transform="translate(300, 0)">
    <rect width="256" height="256" rx="60" fill="#F0DB4F"/>
    <path d="M67.312 213.932l19.591-11.856c3.779 6.701 7.217 12.371 15.464 12.371 7.905 0 12.889-3.092 12.889-15.12v-81.798h24.058v82.138c0 24.917-14.606 36.259-35.916 36.259-19.245 0-30.416-9.967-36.086-21.994z" fill="#323330"/>
    <path d="M152.381 211.354l19.588-11.341c5.157 8.421 11.859 14.607 23.715 14.607 9.969 0 16.325-4.984 16.325-11.858 0-8.248-6.53-11.17-17.528-15.98l-6.013-2.579c-17.357-7.388-28.871-16.668-28.871-36.258 0-18.044 13.748-31.792 35.229-31.792 15.294 0 26.292 5.328 34.196 19.247l-18.731 12.029c-4.125-7.389-8.591-10.31-15.465-10.31-7.046 0-11.514 4.468-11.514 10.31 0 7.217 4.468 10.139 14.778 14.608l6.014 2.577c20.449 8.765 31.963 17.699 31.963 37.804 0 21.654-17.012 33.51-39.867 33.51-22.339 0-36.774-10.654-43.819-24.574z" fill="#323330"/>
  </g>

  <g id="python" transform="translate(600, 0)">
    <defs>
      <linearGradient id="python_blue" x1="47.22" x2="146.333" y1="46.896" y2="145.02" gradientUnits="userSpaceOnUse">
        <stop stop-color="#387EB8"/><stop offset="1" stop-color="#366994"/>
      </linearGradient>
      <linearGradient id="python_yellow" x1="108.056" x2="214.492" y1="109.905" y2="210.522" gradientUnits="userSpaceOnUse">
        <stop stop-color="#FFE052"/><stop offset="1" stop-color="#FFC331"/>
      </linearGradient>
    </defs>
    <rect width="256" height="256" rx="60" fill="#242938"/>
    <path fill="url(#python_blue)" d="M127.279 29c-50.772 0-47.602 22.018-47.602 22.018l.057 22.81h48.451v6.849H60.489S28 76.993 28 128.222c0 51.23 28.357 49.414 28.357 49.414h16.924v-23.773s-.912-28.357 27.905-28.357h48.054s26.999.436 26.999-26.094V55.546s4.099-26.546-48.96-26.546zm-26.716 15.339c4.821 0 8.717 3.896 8.717 8.717 0 4.82-3.896 8.716-8.717 8.716-4.82 0-8.717-3.896-8.717-8.716 0-4.821 3.897-8.717 8.717-8.717z"/>
    <path fill="url(#python_yellow)" d="M128.721 227.958c50.772 0 47.602-22.017 47.602-22.017l-.057-22.811h-48.451v-6.849h67.696s32.489 3.685 32.489-47.545c0-51.23-28.357-49.413-28.357-49.413h-16.924v23.773s.912 28.357-27.905 28.357H106.76s-26.999-.437-26.999 26.093v43.866s-4.099 26.546 48.96 26.546zm26.716-15.339c-4.821 0-8.717-3.896-8.717-8.716 0-4.821 3.896-8.717 8.717-8.717 4.82 0 8.717 3.896 8.717 8.717 0 4.82-3.897 8.716-8.717 8.716z"/>
  </g>

  <g id="c-lang" transform="translate(0, 300)">
    <rect width="256" height="256" rx="60" fill="#394AAB"/>
    <path d="M134.001 33c35.143 0 65.827 19.086 82.261 47.456l-.16-.273-41.349 23.808c-8.146-13.793-23.081-23.102-40.213-23.294l-.539-.003c-26.126 0-47.306 21.18-47.306 47.305 0 8.544 2.278 16.553 6.239 23.47 8.155 14.235 23.483 23.837 41.068 23.837 17.692 0 33.108-9.724 41.221-24.111l-.197.345 41.286 23.918c-16.254 28.13-46.517 47.157-81.252 47.536l-1.058.006c-35.255 0-66.026-19.204-82.419-47.724C43.579 161.353 39 145.212 39 127.999 39 75.533 81.532 33 134.001 33z" fill="white"/>
  </g>

  <g id="SQL" transform="translate(300, 300)">
    <rect width="256" height="256" rx="60" fill="#F58219"/>
    <g fill="none" stroke="#FFFFFF" stroke-width="12" stroke-linecap="round" stroke-linejoin="round">
      <ellipse cx="128" cy="75" rx="45" ry="18" fill="#F58219" fill-opacity="0.3"/>
      <path d="M83 75V110C83 120 103 128 128 128C153 128 173 120 173 110V75" />
      <path d="M83 110V145C83 155 103 163 128 163C153 163 173 155 173 145V110" />
    </g>
    <text x="128" y="215" text-anchor="middle" font-family="Arial, Helvetica, sans-serif" font-weight="900" font-size="42" fill="#FFFFFF">SQL</text>
  </g>
</svg>